<?xml version="1.0" encoding="UTF-8"?>
<svg xmlns="http://www.w3.org/2000/svg" xmlns:xlink="http://www.w3.org/1999/xlink" width="36px" height="31px" viewBox="0 0 36 31" version="1.1">
    
    <title></title>
    <desc>Created with Sketch.</desc>
    <defs/>
    <g id="Page-1" stroke="none" stroke-width="1" fill="none" fill-rule="evenodd">
        <g id="1366-x-768" transform="translate(-1297.000000, -31.000000)" fill="#253778">
            <g id="Group" transform="translate(1297.000000, 21.000000)">
                <path d="M13.8461538,37.6923077 C13.8461538,38.4423114 13.5721181,39.0913434 13.0240385,39.6394231 C12.4759588,40.1875027 11.8269268,40.4615385 11.0769231,40.4615385 C10.3269193,40.4615385 9.67788736,40.1875027 9.12980769,39.6394231 C8.58172803,39.0913434 8.30769231,38.4423114 8.30769231,37.6923077 C8.30769231,36.9423039 8.58172803,36.293272 9.12980769,35.7451923 C9.67788736,35.1971126 10.3269193,34.9230769 11.0769231,34.9230769 C11.8269268,34.9230769 12.4759588,35.1971126 13.0240385,35.7451923 C13.5721181,36.293272 13.8461538,36.9423039 13.8461538,37.6923077 Z M33.2307692,37.6923077 C33.2307692,38.4423114 32.9567335,39.0913434 32.4086538,39.6394231 C31.8605742,40.1875027 31.2115422,40.4615385 30.4615385,40.4615385 C29.7115347,40.4615385 29.0625027,40.1875027 28.5144231,39.6394231 C27.9663434,39.0913434 27.6923077,38.4423114 27.6923077,37.6923077 C27.6923077,36.9423039 27.9663434,36.293272 28.5144231,35.7451923 C29.0625027,35.1971126 29.7115347,34.9230769 30.4615385,34.9230769 C31.2115422,34.9230769 31.8605742,35.1971126 32.4086538,35.7451923 C32.9567335,36.293272 33.2307692,36.9423039 33.2307692,37.6923077 Z M36,14.1538462 L36,25.2307692 C36,25.5769248 35.8810108,25.8834121 35.6430288,26.1502404 C35.4050469,26.4170686 35.1129825,26.5721152 34.7668269,26.6153846 L12.1802885,29.2548077 C12.3677894,30.1201966 12.4615385,30.6249993 12.4615385,30.7692308 C12.4615385,31.0000012 12.2884633,31.461535 11.9423077,32.1538462 L31.8461538,32.1538462 C32.2211557,32.1538462 32.5456717,32.290864 32.8197115,32.5649038 C33.0937514,32.8389437 33.2307692,33.1634597 33.2307692,33.5384615 C33.2307692,33.9134634 33.0937514,34.2379794 32.8197115,34.5120192 C32.5456717,34.7860591 32.2211557,34.9230769 31.8461538,34.9230769 L9.69230769,34.9230769 C9.31730582,34.9230769 8.99278983,34.7860591 8.71875,34.5120192 C8.44471017,34.2379794 8.30769231,33.9134634 8.30769231,33.5384615 C8.30769231,33.3798069 8.36538404,33.1526457 8.48076923,32.8569712 C8.59615442,32.5612966 8.71153788,32.3016838 8.82692308,32.078125 C8.94230827,31.8545662 9.0973548,31.5661075 9.29206731,31.2127404 C9.48677982,30.8593732 9.59855755,30.646635 9.62740385,30.5745192 L5.79807692,12.7692308 L1.38461538,12.7692308 C1.00961351,12.7692308 0.685097524,12.6322129 0.411057692,12.3581731 C0.137017861,12.0841332 0,11.7596173 0,11.3846154 C0,11.0096135 0.137017861,10.6850975 0.411057692,10.4110577 C0.685097524,10.1370179 1.00961351,10 1.38461538,10 L6.92307692,10 C7.15384731,10 7.3593741,10.0468745 7.53966346,10.140625 C7.71995282,10.2343755 7.86057642,10.3461532 7.96153846,10.4759615 C8.0625005,10.6057699 8.15624957,10.7824508 8.24278846,11.0060096 C8.32932736,11.2295684 8.38701909,11.4170666 8.41586538,11.5685096 C8.44471168,11.7199527 8.48437475,11.9326909 8.53485577,12.2067308 C8.58533679,12.4807706 8.61778839,12.6682687 8.63221154,12.7692308 L34.6153846,12.7692308 C34.9903865,12.7692308 35.3149025,12.9062486 35.5889423,13.1802885 C35.8629821,13.4543283 36,13.7788443 36,14.1538462 Z" id=""/>
            </g>
        </g>
    </g>
</svg>
